<svg version="1.1" xmlns="http://www.w3.org/2000/svg" x="0" y="0" viewBox="0 0 998.1 998.3" xml:space="preserve"><style>.st8{fill:#fff}</style><path d="M931.7 998.3c36.5 0 66.4-29.4 66.4-65.4V265.8c0-36-29.9-65.4-66.4-65.4H283.6l260.1 797.9h388z" fill="#dbdbdb"/><path d="M931.7 230.4c9.7 0 18.9 3.8 25.8 10.6 6.8 6.7 10.6 15.5 10.6 24.8v667.1c0 9.3-3.7 18.1-10.6 24.8-6.9 6.8-16.1 10.6-25.8 10.6H565.5L324.9 230.4h606.8m0-30H283.6l260.1 797.9h388c36.5 0 66.4-29.4 66.4-65.4V265.8c0-36-29.9-65.4-66.4-65.4z" fill="#dcdcdc"/><path fill="#360838" d="M482.3 809.8l61.4 188.5 170.7-188.5z"/><path d="M936.1 476.1V437H747.6v-63.2h-61.2V437H566.1v39.1h239.4c-12.8 45.1-41.1 87.7-68.7 120.8-48.9-57.9-49.1-76.7-49.1-76.7h-50.8s2.1 28.2 70.7 108.6c-22.3 22.8-39.2 36.3-39.2 36.3l15.6 48.8s23.6-20.3 53.1-51.6c29.6 32.1 67.8 70.7 117.2 116.7l32.1-32.1c-52.9-48-91.7-86.1-120.2-116.7 38.2-45.2 77-102.1 85.2-154.2H936v.1h.1z" fill="#607988"/><path d="M66.4 0C29.9 0 0 29.9 0 66.5v677c0 36.5 29.9 66.4 66.4 66.4h648.1L454.4 0h-388z" fill="#4a154b"/><linearGradient id="SVGID_1_" gradientUnits="userSpaceOnUse" x1="534.3" y1="566.8" x2="998.1" y2="566.8" gradientTransform="matrix(1 0 0 -1 0 1000)"><stop offset="0" stop-color="#fff" stop-opacity=".2"/><stop offset="1" stop-color="#fff" stop-opacity=".02"/></linearGradient><path d="M534.3 200.4h397.4c36.5 0 66.4 29.4 66.4 65.4V666L534.3 200.4z" fill="url(#SVGID_1_)"/><radialGradient id="SVGID_2_" cx="65.208" cy="980.635" r="1398.271" gradientTransform="matrix(1 0 0 -1 0 1000)" gradientUnits="userSpaceOnUse"><stop offset="0" stop-color="#fff" stop-opacity=".1"/><stop offset="1" stop-color="#fff" stop-opacity="0"/></radialGradient><path d="M931.7 200.4H518.8L454.4 0h-388C29.9 0 0 29.9 0 66.5v677c0 36.5 29.9 66.4 66.4 66.4h415.9l61.4 188.4h388c36.5 0 66.4-29.4 66.4-65.4V265.8c0-36-29.9-65.4-66.4-65.4z" fill="url(#SVGID_2_)"/><g><path class="st8" d="M167.5 455.4c0 21.9-17.9 39.8-39.8 39.8S88 477.3 88 455.4s17.9-39.8 39.8-39.8h39.8v39.8zM187.5 455.4c0-21.9 17.9-39.8 39.8-39.8s39.8 17.9 39.8 39.8V555c0 21.9-17.9 39.8-39.8 39.8s-39.8-17.9-39.8-39.8v-99.6zM227.3 295.8c-21.9 0-39.8-17.9-39.8-39.8s17.9-39.8 39.8-39.8 39.7 18 39.7 39.8v39.8h-39.7zM227.3 315.8c21.9 0 39.8 17.9 39.8 39.8s-17.9 39.8-39.8 39.8h-99.5c-21.9 0-39.8-17.9-39.8-39.8s17.9-39.8 39.8-39.8h99.5z"/><g><path class="st8" d="M386.9 355.6c0-21.9 17.9-39.8 39.8-39.8s39.8 17.9 39.8 39.8-17.9 39.8-39.8 39.8h-39.8v-39.8zM366.9 355.6c0 21.9-17.9 39.8-39.8 39.8s-39.8-17.9-39.8-39.8V256c0-21.9 17.9-39.8 39.8-39.8s39.8 17.9 39.8 39.8v99.6z"/></g><g><path class="st8" d="M327.1 515.2c21.9 0 39.8 17.9 39.8 39.8s-17.9 39.8-39.8 39.8-39.8-17.9-39.8-39.8v-39.8h39.8zM327.1 495.2c-21.9 0-39.8-17.9-39.8-39.8s17.9-39.8 39.8-39.8h99.5c21.9 0 39.8 17.9 39.8 39.8s-17.9 39.8-39.8 39.8h-99.5z"/></g></g></svg>